<svg width="28" height="32" viewBox="0 0 28 32" fill="none" xmlns="http://www.w3.org/2000/svg">
<path d="M27.0555 18.1604H0.739746L1.25574 23.7589L13.8976 31.2819L27.0555 23.409V18.1604Z" fill="#036735"/>
<path fill-rule="evenodd" clip-rule="evenodd" d="M12.5687 0.90477C13.5592 0.331711 14.7746 0.331711 15.7651 0.90477L15.7675 0.906166L26.2959 7.07172C27.2669 7.64468 27.8599 8.68425 27.8599 9.80273V22.1969C27.8599 23.3215 27.2685 24.3633 26.2936 24.9293C26.2933 24.9295 26.2929 24.9297 26.2925 24.9299L15.7675 31.0935L15.7651 31.0949C14.7746 31.668 13.5592 31.668 12.5687 31.0949L12.5663 31.0935L2.0394 24.9288L2.03789 24.9279C1.06693 24.355 0.473877 23.3154 0.473877 22.1969V9.80273C0.473877 8.67813 1.0654 7.6363 2.0403 7.0703C2.04063 7.07012 2.04095 7.06993 2.04127 7.06974L12.5687 0.90477ZM13.0981 1.81209C13.0977 1.81231 13.0973 1.81254 13.0969 1.81276L2.57056 7.97711C1.92402 8.35216 1.52651 9.04585 1.52651 9.80273V22.1969C1.52651 22.9438 1.92264 23.6399 2.57333 24.0242C2.57354 24.0243 2.57313 24.0241 2.57333 24.0242L13.0969 30.1869C13.0972 30.1871 13.0976 30.1873 13.0979 30.1875C13.7612 30.5708 14.5723 30.5708 15.2357 30.1876C15.2361 30.1874 15.2365 30.1871 15.2369 30.1869L25.7614 24.0236L25.7632 24.0226C26.4098 23.6475 26.8073 22.9538 26.8073 22.1969V9.80273C26.8073 9.05582 26.4112 8.35976 25.7605 7.9755C25.7603 7.97537 25.7607 7.97562 25.7605 7.9755L15.2369 1.81276C15.2365 1.81254 15.2361 1.81231 15.2357 1.81209C14.5724 1.4289 13.7614 1.4289 13.0981 1.81209Z" fill="#036735"/>
<path d="M4.51904 11.8794L4.89211 11.6685L5.86532 12.3255L5.768 12.7067L5.83288 12.6662L6.69254 11.125L7.02506 11.4089L6.30326 12.7797L5.92209 12.7229L7.47922 13.7693L7.14671 14.0208L5.8491 13.4043L5.96264 12.9582L5.75989 12.9419L4.95699 14.548L4.68124 14.0126L5.30572 12.6824L5.67878 12.8852L5.6869 12.7554L4.51904 11.8794Z" fill="#036735"/>
<path d="M5.60578 13.4775L5.22461 15.4323C5.87342 15.043 6.77364 14.8888 6.77364 14.8888L6.66009 13.9155L5.71932 13.4937L5.80854 13.0557H5.7842L5.60578 13.4775Z" fill="#036735"/>
<path d="M13.0185 10.1354C13.0023 9.96506 12.9212 9.90017 12.7347 9.7785C12.5481 9.65683 12.4508 9.29181 12.4184 9.17014C12.3859 9.04847 12.4022 9.04847 12.4508 8.98358C12.4833 8.77268 12.3373 8.26978 12.3373 8.26978C12.3373 8.27789 12.1994 8.76457 12.2237 8.98358C12.2724 9.04847 12.2886 9.04847 12.2562 9.17014C12.2237 9.29181 12.1345 9.65683 11.9399 9.7785C11.7534 9.90017 11.6804 9.95695 11.656 10.1354C11.6479 10.3625 11.8264 10.4923 11.9237 10.4761L11.1694 11.1655L11.3884 11.3197V13.3637C12.313 12.8365 13.2699 13.0312 13.2699 13.0312V11.3197L13.4889 11.1655L12.7347 10.4761C12.8401 10.4923 13.0104 10.3544 13.0185 10.1354Z" fill="#036735"/>
<path d="M2.00537 17.7766H13.9515C13.4406 16.5842 8.76106 11.9282 2.00537 17.7766Z" fill="#E3364D"/>
<path d="M19.329 17.809C18.1936 16.1543 14.0169 10.5898 9.71045 14.751C9.71856 14.751 12.7436 15.1079 14.2845 17.7765L18.8667 17.7928C18.8667 17.7928 18.8667 17.7847 18.8586 17.7847L19.329 17.809Z" fill="#92C01F"/>
<path d="M18.5659 14.0044H18.4199V15.213H18.5659V14.0044Z" fill="#036735"/>
<path d="M20.2368 14.6617H20.0908V15.2863H20.2368V14.6617Z" fill="#036735"/>
<path d="M18.4693 11.2141C18.4693 11.2141 19.3127 12.1875 19.3046 12.9662C19.2965 13.7368 18.5098 14.1423 18.5098 14.1423C18.5098 14.1423 17.715 13.7611 17.6826 12.9905C17.6501 12.2199 18.4693 11.2141 18.4693 11.2141Z" fill="#036735"/>
<path d="M17.958 13.0229C17.9337 12.3578 18.2824 11.5304 18.477 11.2059C18.3229 11.4087 17.666 12.2199 17.6904 12.9986C17.7228 13.688 18.3797 14.0693 18.5095 14.1342C18.2337 13.907 17.9742 13.5258 17.958 13.0229Z" fill="#036735"/>
<path d="M19.0286 12.9743C19.053 12.3092 18.6556 11.5386 18.4609 11.2223C18.6394 11.417 19.2801 12.2038 19.3125 12.9825C19.2801 13.6719 18.6394 14.0775 18.5096 14.1505C18.7772 13.9153 19.0043 13.4773 19.0286 12.9743Z" fill="#036735"/>
<path d="M20.148 12.4797C20.148 12.4797 20.8049 13.2341 20.7968 13.8343C20.7887 14.4346 20.1804 14.7509 20.1804 14.7509C20.1804 14.7509 19.5641 14.4508 19.5397 13.8587C19.5154 13.2584 20.148 12.4797 20.148 12.4797Z" fill="#036735"/>
<path d="M20.4472 17.8089C19.5226 16.3894 17.4951 15.3268 17.4951 15.3268C17.4951 15.3268 18.9225 16.5597 19.7173 17.8089H20.4472Z" fill="#036735"/>
<path d="M24.5184 17.801C21.6637 14.8971 17.4951 15.327 17.4951 15.327C17.4951 15.327 21.1203 15.6028 22.7423 17.7847L24.5184 17.801Z" fill="#036735"/>
<path d="M26.473 17.8006C23.1641 13.8341 17.4951 15.3266 17.4951 15.3266C17.4951 15.3266 22.2152 14.6209 24.9969 17.8006H26.473Z" fill="#036735"/>
<path d="M22.272 17.8008C20.7311 15.8054 17.4951 15.3268 17.4951 15.3268C17.4951 15.3268 19.5226 15.9189 20.8203 17.8008H22.272Z" fill="#036735"/>
<path d="M6 18H7.33005L9.7793 23.7672H9.97394V18H10.6714V24.3918H9.37379L6.884 18.6246H6.71369V24.3918H6V18Z" fill="white"/>
<path d="M13.5785 17.9951H15.1276L16.8793 24.3869H16.1738L15.7115 22.7403H12.9784L12.5161 24.3869H11.8105L13.5785 17.9951ZM13.1406 22.1076H15.5574L14.5842 18.6035H14.1057L13.1406 22.1076Z" fill="white"/>
<path d="M19.6687 21.5641L18.6063 21.5966V24.3869H17.8926V17.9951H18.6063V20.972L19.6606 20.9315L21.2907 17.9951H22.1017L20.2769 21.2072L22.2071 24.3869H21.3637L19.6687 21.5641Z" fill="white"/>
</svg>
